<svg xmlns="http://www.w3.org/2000/svg" viewBox="0 0 64 64" role="img" aria-label="WebLinkPilot">
  <defs>
    <linearGradient id="bg" x1="10" y1="8" x2="54" y2="58" gradientUnits="userSpaceOnUse">
      <stop offset="0" stop-color="#38bdf8" />
      <stop offset="0.58" stop-color="#2563eb" />
      <stop offset="1" stop-color="#0f172a" />
    </linearGradient>
    <linearGradient id="spark" x1="40" y1="8" x2="56" y2="24" gradientUnits="userSpaceOnUse">
      <stop offset="0" stop-color="#fde68a" />
      <stop offset="1" stop-color="#f59e0b" />
    </linearGradient>
  </defs>
  <rect width="64" height="64" rx="18" fill="url(#bg)" />
  <circle cx="48" cy="16" r="8" fill="url(#spark)" />
  <path
    d="M24.2 35.8 19 41a8.6 8.6 0 0 1-12.2-12.2l6.5-6.5a8.6 8.6 0 0 1 12.2 0"
    fill="none"
    stroke="#fff"
    stroke-width="5.5"
    stroke-linecap="round"
    stroke-linejoin="round"
  />
  <path
    d="M39.8 28.2 45 23a8.6 8.6 0 1 1 12.2 12.2l-6.5 6.5a8.6 8.6 0 0 1-12.2 0"
    fill="none"
    stroke="#fff"
    stroke-width="5.5"
    stroke-linecap="round"
    stroke-linejoin="round"
  />
  <path
    d="M24 40 40 24"
    fill="none"
    stroke="#fff"
    stroke-width="5.5"
    stroke-linecap="round"
  />
  <rect x="8" y="8" width="48" height="48" rx="14" fill="none" stroke="#fff" stroke-opacity="0.2" />
</svg>
